<?xml version="1.0" encoding="utf-8"?>
<!-- Generator: Adobe Illustrator 15.0.0, SVG Export Plug-In  -->
<!DOCTYPE svg PUBLIC "-//W3C//DTD SVG 1.1//EN" "http://www.w3.org/Graphics/SVG/1.1/DTD/svg11.dtd" [
	<!ENTITY ns_flows "http://ns.adobe.com/Flows/1.0/">
]>
<svg version="1.1"
	 xmlns="http://www.w3.org/2000/svg" xmlns:xlink="http://www.w3.org/1999/xlink" xmlns:a="http://ns.adobe.com/AdobeSVGViewerExtensions/3.0/"
	 x="0px" y="0px" width="26px" height="26px" viewBox="-0.776 -0.054 26 26" enable-background="new -0.776 -0.054 26 26"
	 xml:space="preserve">
<defs>
</defs>
<path fill="#FFFFFF" d="M18.119,0.011h-0.002C17.961,0,14.487-0.201,12.224,1.812C9.96-0.202,6.488,0,6.364,0.01
	C2.795,0.01,0,2.367,0,5.376v13.153c0,2.957,2.406,5.363,5.379,5.363c0.055,0.009,1.262,0.001,2.35-0.457
	c0.957,1.475,2.61,2.457,4.496,2.457c1.889,0,3.544-0.986,4.5-2.466c1.061,0.452,2.242,0.466,2.353,0.466c0.003,0,0.005,0,0.007,0
	c2.957,0,5.363-2.406,5.363-5.363V5.343C24.447,2.303,21.713,0.011,18.119,0.011z M23.447,18.529c0,2.406-1.957,4.363-4.366,4.363
	c0.005,0.005-1.001,0-1.891-0.357c0.252-0.621,0.397-1.297,0.397-2.007V10.374c0-0.276-0.224-0.5-0.5-0.5s-0.5,0.224-0.5,0.5v10.154
	c0,2.406-1.957,4.364-4.363,4.364c-2.407,0-4.365-1.958-4.365-4.364V10.374c0-0.276-0.224-0.5-0.5-0.5s-0.5,0.224-0.5,0.5v10.154
	c0,0.713,0.146,1.392,0.4,2.015c-0.882,0.344-1.902,0.32-1.896,0.35C2.958,22.893,1,20.936,1,18.529V5.376
	C1,2.928,3.356,1.01,6.396,1.009c0.036,0.002,3.557-0.202,5.462,1.842c0.189,0.203,0.542,0.203,0.731,0
	c1.905-2.044,5.426-1.847,5.494-1.841c3.107,0,5.363,1.822,5.363,4.333V18.529z"/>
</svg>
